# xmcd CD database file
#
# Track frame offsets:
#	150
#	18177
#	29317
#	45140
#	64837
#	83642
#	97850
#	113430
#	129447
#	155482
#	172267
#	191445
#	211045
#	224967
#	244130
#	260770
#
# Disc length: 3712 seconds
#
# Revision: 0
# Processed by: cddbd v1.5.2PL0 Copyright (c) Steve Scherf et al.
# Submitted via: CDex 1.70beta2
#
DISCID=d20e7e10
DTITLE=クリスタル・サウンド・オーケストラ - BGM　波と音楽
DYEAR=1900
DGENRE=New Age
TTITLE0=泣かないでエロディ
TTITLE1=新しい旅だち
TTITLE2=渚のアデリーヌ
TTITLE3=エンドレス・ラブ
TTITLE4=愛は吐息のように
TTITLE5=愛しのクリスティーヌ
TTITLE6=デンジャー・ゾーン
TTITLE7=海辺の少女
TTITLE8=ウィル・ユー・スティル・ラブ・ミー
TTITLE9=コンスエロの愛のテーマ
TTITLE10=愛と青春の旅立ち
TTITLE11=キリエ
TTITLE12=再会
TTITLE13=哀しみのテス
TTITLE14=哀愁のアダージョ
TTITLE15=涙のトッカータ
EXTD=
EXTT0=
EXTT1=
EXTT2=
EXTT3=
EXTT4=
EXTT5=
EXTT6=
EXTT7=
EXTT8=
EXTT9=
EXTT10=
EXTT11=
EXTT12=
EXTT13=
EXTT14=
EXTT15=
PLAYORDER=
